# 3ds Max Wavefront OBJ Exporter v0.97b - (c)2007 guruware
# File Created: 11.11.2017 12:35:15

#
# object GeoSphere001
#

v  0.0109 66.2485 -0.0272
v  29.6083 47.9563 -0.0272
v  9.1570 47.9563 -28.1760
v  -23.9339 47.9563 -17.4241
v  -23.9339 47.9563 17.3697
v  9.1570 47.9563 28.1216
v  23.9557 18.3589 17.3697
v  23.9557 18.3589 -17.4241
v  -9.1352 18.3589 -28.1760
v  -29.5865 18.3589 -0.0272
v  -9.1352 18.3589 28.1216
v  0.0109 0.0667 -0.0272
# 12 vertices

vn 0.4911 0.7947 -0.3568
vn -0.1876 0.7947 -0.5774
vn -0.6071 0.7947 0.0000
vn -0.1876 0.7947 0.5774
vn 0.4911 0.7947 0.3568
vn 0.9822 -0.1876 -0.0000
vn 0.3035 -0.1876 -0.9342
vn -0.7947 -0.1876 -0.5774
vn -0.7947 -0.1876 0.5774
vn 0.3035 -0.1876 0.9342
vn 0.7947 0.1876 -0.5774
vn -0.3035 0.1876 -0.9342
vn -0.9822 0.1876 0.0000
vn -0.3035 0.1876 0.9342
vn 0.7947 0.1876 0.5774
vn 0.1876 -0.7947 -0.5774
vn -0.4911 -0.7947 -0.3568
vn -0.4911 -0.7947 0.3568
vn 0.1876 -0.7947 0.5774
vn 0.6071 -0.7947 -0.0000
# 20 vertex normals

vt 0.6000 1.0000 33.0909
vt 0.5000 0.6476 33.0909
vt 0.7000 0.6476 33.0909
vt 0.8000 1.0000 33.0909
vt 0.9000 0.6476 33.0909
vt 0.0000 1.0000 33.0909
vt -0.1000 0.6476 33.0909
vt 0.1000 0.6476 33.0909
vt 0.2000 1.0000 33.0909
vt 0.3000 0.6476 33.0909
vt 0.4000 1.0000 33.0909
vt 0.4000 0.3524 33.0909
vt 0.6000 0.3524 33.0909
vt 0.8000 0.3524 33.0909
vt -0.2000 0.3524 33.0909
vt 0.0000 0.3524 33.0909
vt 0.2000 0.3524 33.0909
vt 0.7000 0.0000 33.0909
vt -0.1000 0.0000 33.0909
vt 0.1000 0.0000 33.0909
vt 0.3000 0.0000 33.0909
vt 0.5000 0.0000 33.0909
# 22 texture coords

o GeoSphere001
g GeoSphere001
s off
f 1/1/1 2/2/1 3/3/1 
f 1/4/2 3/3/2 4/5/2 
f 1/6/3 4/7/3 5/8/3 
f 1/9/4 5/8/4 6/10/4 
f 1/11/5 6/10/5 2/2/5 
f 2/2/6 7/12/6 8/13/6 
f 3/3/7 8/13/7 9/14/7 
f 4/7/8 9/15/8 10/16/8 
f 5/8/9 10/16/9 11/17/9 
f 6/10/10 11/17/10 7/12/10 
f 8/13/11 3/3/11 2/2/11 
f 9/14/12 4/5/12 3/3/12 
f 10/16/13 5/8/13 4/7/13 
f 11/17/14 6/10/14 5/8/14 
f 7/12/15 2/2/15 6/10/15 
f 12/18/16 9/14/16 8/13/16 
f 12/19/17 10/16/17 9/15/17 
f 12/20/18 11/17/18 10/16/18 
f 12/21/19 7/12/19 11/17/19 
f 12/22/20 8/13/20 7/12/20 
# 20 faces

